<?xml version="1.0" encoding="UTF-8" standalone="no"?>
<!-- Created with Inkscape (http://www.inkscape.org/) -->

<svg
   width="750"
   height="750"
   viewBox="0 0 198.43749 198.43751"
   version="1.1"
   id="svg5"
   inkscape:version="1.1 (c68e22c387, 2021-05-23)"
   sodipodi:docname="spherical-cow.svg"
   inkscape:export-filename="F:\GDrive\Twitch\avatar\new\originals\spherical-cow.png"
   inkscape:export-xdpi="38.400002"
   inkscape:export-ydpi="38.400002"
   xmlns:inkscape="http://www.inkscape.org/namespaces/inkscape"
   xmlns:sodipodi="http://sodipodi.sourceforge.net/DTD/sodipodi-0.dtd"
   xmlns="http://www.w3.org/2000/svg"
   xmlns:svg="http://www.w3.org/2000/svg">
  <sodipodi:namedview
     id="namedview7"
     pagecolor="#ffffff"
     bordercolor="#666666"
     borderopacity="1.0"
     inkscape:pageshadow="2"
     inkscape:pageopacity="0.0"
     inkscape:pagecheckerboard="0"
     inkscape:document-units="mm"
     showgrid="false"
     fit-margin-top="0"
     fit-margin-left="0"
     fit-margin-right="0"
     fit-margin-bottom="0"
     units="px"
     width="750px"
     inkscape:zoom="0.33317901"
     inkscape:cx="220.60213"
     inkscape:cy="535.74804"
     inkscape:window-width="1920"
     inkscape:window-height="1017"
     inkscape:window-x="-8"
     inkscape:window-y="-8"
     inkscape:window-maximized="1"
     inkscape:current-layer="layer1" />
  <defs
     id="defs2" />
  <g
     inkscape:label="Capa 1"
     inkscape:groupmode="layer"
     id="layer1"
     transform="translate(-6.66865,-54.989548)">
    <path
       style="fill:#000000;stroke-width:0.232188"
       id="path541"
       d="" />
    <path
       style="fill:#000000;stroke-width:0.232188"
       id="path521"
       d="" />
    <g
       id="g12628"
       transform="matrix(1.1245351,0,0,1.1245351,-11.047904,-21.843566)">
      <g
         id="g1845"
         style="stroke:#ffffff;stroke-opacity:1"
         transform="translate(-5.2916669,-0.52916663)">
        <circle
           style="fill:#ffffff;fill-opacity:1;stroke:#ffffff;stroke-width:6;stroke-miterlimit:4;stroke-dasharray:none;stroke-opacity:1;paint-order:stroke fill markers;stop-color:#000000"
           id="circle950"
           cx="110.07085"
           cy="170.07687"
           r="66.619598" />
        <path
           id="circle1714"
           style="fill:#000000;fill-opacity:1;stroke:#ffffff;stroke-width:11.3386;stroke-miterlimit:4;stroke-dasharray:none;stroke-opacity:1;paint-order:stroke fill markers;stop-color:#000000"
           d="m 278.65234,209.66016 a 251.79061,251.79061 0 0 0 -139.63086,225.3164 251.79061,251.79061 0 0 0 2.36719,33.57227 203.4309,148.86982 0 0 0 1.50977,0.10937 203.4309,148.86982 0 0 0 203.43164,-148.87109 203.4309,148.86982 0 0 0 -67.67774,-110.12695 z m 284.51758,41.78906 a 114.88991,94.844811 0 0 0 -8.37695,33.43945 114.88991,94.844811 0 0 0 80.52344,90.0293 251.79061,251.79061 0 0 0 -72.14649,-123.46875 z m -17.49023,202.79687 a 106.53104,107.52969 0 0 0 -68.82617,25.54883 66.011784,66.630594 0 0 0 -34.17969,-9.63281 66.011784,66.630594 0 0 0 -66.01172,66.63086 66.011784,66.630594 0 0 0 66.01172,66.63086 66.011784,66.630594 0 0 0 4.7832,-0.17969 106.53104,107.52969 0 0 0 56.20117,56.68555 251.79061,251.79061 0 0 0 129.69141,-157.95508 106.53104,107.52969 0 0 0 -87.66992,-47.72852 z m -309.32617,60.48438 a 146.32422,201.97217 0 0 0 -73.06446,27.9668 251.79061,251.79061 0 0 0 217.67578,143.70117 146.32422,201.97217 0 0 0 -144.61132,-171.66797 z"
           transform="matrix(0.26458333,0,0,0.26458333,6.66865,54.989548)" />
      </g>
      <g
         id="g11979"
         transform="matrix(1.1013894,0,0,1.1013894,-20.394519,-12.686365)">
        <g
           id="g11033"
           transform="matrix(0.93077015,0,0,0.98131396,8.989324,13.703916)">
          <path
             style="fill:#fbaba9;fill-opacity:1;stroke:#000000;stroke-width:3.175;stroke-linecap:round;stroke-linejoin:round;stroke-miterlimit:4;stroke-dasharray:none;stroke-opacity:1"
             d="m 126.07641,78.730288 c 0,0 10.8161,-3.959275 16.47794,-4.16912 10.51493,-0.389715 17.86764,4.56618 17.86764,4.56618 0,0 -0.39706,8.735295 -11.11765,14.49265 -7.90167,4.243491 -23.22793,-14.88971 -23.22793,-14.88971"
             id="path7461"
             sodipodi:nodetypes="cscsc" />
          <path
             style="fill:#fbaba9;fill-opacity:1;stroke:#ffffff;stroke-width:3.175;stroke-linecap:round;stroke-linejoin:round;stroke-miterlimit:4;stroke-dasharray:none;stroke-opacity:1"
             d="M 102.75853,86.531458 86.366348,91.025878 66.426553,86.0201 c 0,0 0.589179,-11.972615 12.813938,-13.915732 8.857836,-1.407947 23.518039,14.42709 23.518039,14.42709"
             id="path7752"
             sodipodi:nodetypes="cccsc" />
          <rect
             style="fill:#ffd700;fill-opacity:1;stroke:none;stroke-width:2.55636;stroke-linecap:round;stroke-linejoin:round;stroke-miterlimit:4;stroke-dasharray:none;stroke-opacity:1;paint-order:stroke fill markers;stop-color:#000000"
             id="rect7866"
             width="16.473688"
             height="15.286764"
             x="107.43608"
             y="31.862698"
             ry="3.4742539"
             rx="3.861021"
             transform="rotate(18.71526)" />
          <rect
             style="fill:#ffd700;fill-opacity:1;stroke:none;stroke-width:2.55636;stroke-linecap:round;stroke-linejoin:round;stroke-miterlimit:4;stroke-dasharray:none;stroke-opacity:1;paint-order:stroke fill markers;stop-color:#000000"
             id="rect10878"
             width="16.473688"
             height="15.286764"
             x="-109.65945"
             y="105.40989"
             ry="3.4742539"
             rx="3.861021"
             transform="matrix(-0.94712485,0.32086526,0.32086526,0.94712485,0,0)" />
        </g>
        <path
           id="rect1869"
           style="fill:#fffefe;fill-opacity:1;stroke:none;stroke-width:3.17119;stroke-miterlimit:4;stroke-dasharray:none;stroke-opacity:1;paint-order:stroke fill markers;stop-color:#000000"
           d="m 106.31809,81.420729 c -14.040251,0 -25.343386,11.916922 -25.343386,26.719601 v 3.87853 11.20545 26.7196 h 25.343386 16.35049 25.34392 v -26.7196 -11.20545 -3.87853 c 0,-14.802679 -11.30366,-26.719601 -25.34392,-26.719601 z" />
        <path
           d="m 92.433672,156.3809 c -3.756012,-0.14243 -4.954348,-0.2953 -6.230352,-0.79479 -4.576552,-1.79156 -7.872862,-4.81237 -9.753057,-8.93797 -1.432453,-3.14314 -1.934617,-5.33808 -1.934617,-8.45613 0,-8.48071 5.360484,-15.8609 12.908724,-17.77238 2.578698,-0.653 50.11499,-0.653 52.69366,0 7.61044,1.92723 12.91773,9.18427 12.90469,17.64547 -0.013,8.36948 -4.42654,14.87242 -12.03249,17.72834 -1.06474,0.39979 -4.11325,0.48259 -22.56854,0.613 -11.73563,0.0829 -23.430256,0.0714 -25.988018,-0.0256 z"
           style="fill:#f9aaa8;stroke-width:0.0750147"
           id="path4826" />
        <path
           d="m 98.80909,113.23774 c -4.663346,-0.93902 -6.939184,-6.73961 -4.268285,-10.87886 2.649012,-4.105332 8.407805,-4.105332 11.056795,0 3.29628,5.10846 -1.02829,12.03876 -6.78851,10.87886 z m 27.37794,0 c -4.66332,-0.93902 -6.93916,-6.73961 -4.26829,-10.87886 2.649,-4.105332 8.4078,-4.105332 11.05678,0 3.29628,5.10846 -1.02828,12.03876 -6.78849,10.87886 z"
           style="fill:#101010;stroke-width:0.0196792"
           id="path2556" />
      </g>
    </g>
  </g>
</svg>
