<svg xmlns="http://www.w3.org/2000/svg" viewBox="0 0 297 297" style="enable-background:new 0 0 297 297" xml:space="preserve"><path style="fill:#f9b65f" d="M155.629 218.245c8.355-10.711 32.4-18.058 41.303-26.961 18.891-18.891 7.414-48.252-17.775-73.441s-54.549-36.666-73.441-17.775c-8.903 8.903-16.25 32.947-26.961 41.303-21.989 17.153-47.71 9.413-64.676 26.379-26.238 26.238-13.869 59.072 21.115 94.056s67.818 47.353 94.056 21.115c16.965-16.966 9.226-42.687 26.379-64.676z"/><path style="opacity:.3;fill:#f9b65f" d="M191.814 132.417c8.863 17.144 9.451 33.893-2.855 46.199-8.903 8.903-32.947 16.25-41.303 26.961-17.153 21.989-9.413 47.71-26.379 64.676-26.238 26.238-59.072 13.869-94.056-21.115-7.596-7.596-14.122-15.09-19.422-22.438 6.032 11.328 15.379 23.09 27.394 35.105 34.984 34.984 67.818 47.353 94.056 21.115 16.966-16.966 9.227-42.688 26.379-64.676 8.355-10.711 32.4-18.058 41.303-26.961 15.335-15.334 10.659-37.566-5.117-58.866z"/><path transform="rotate(45.001 198.354 98.646)" style="fill:#935733" d="M182.516 7.935h31.671v181.426h-31.671z"/><path transform="rotate(-45.001 205.678 105.978)" style="opacity:.3;fill:#935733" d="M114.966 100.501h181.426v10.948H114.966z"/><circle style="fill:#794c2b" cx="123.651" cy="173.349" r="24.884"/><circle style="opacity:.31;fill:#794c2b" cx="123.651" cy="173.349" r="20.399"/><circle style="fill:#ae9676" cx="123.651" cy="173.349" r="9.727"/><path style="fill:#794c2b" d="m55.39 213.86 27.75 27.75a6.167 6.167 0 0 0 8.721 0l3.116-3.116a6.167 6.167 0 0 0 0-8.721l-27.75-27.75a6.167 6.167 0 0 0-8.721 0l-3.116 3.116a6.167 6.167 0 0 0 0 8.721zM243.319 66.29l-12.608-12.608a10.243 10.243 0 0 1-.811-13.572l28.438-36.194c3.794-4.829 10.956-5.257 15.298-.915L294 23.365c4.343 4.343 3.914 11.504-.915 15.298l-36.194 28.438a10.244 10.244 0 0 1-13.572-.811z"/><path style="opacity:.31;fill:#794c2b" d="m294 23.365-1.792-1.792a10.196 10.196 0 0 1-2.622 3.091l-36.194 28.438a10.244 10.244 0 0 1-13.572-.811l-10.816-10.816a10.239 10.239 0 0 0 1.708 12.208l12.608 12.608a10.243 10.243 0 0 0 13.572.811l36.194-28.438c4.828-3.795 5.256-10.957.914-15.299z"/></svg>