<svg xmlns="http://www.w3.org/2000/svg" viewBox="0 0 512 512" style="enable-background:new 0 0 512 512" xml:space="preserve"><path style="fill:#4d4d4d" d="M467.404 303.544v1.239H44.596v-1.239H0v198.49h44.596v-43.568h422.808v43.568H512v-198.49z"/><path style="fill:#666" d="M319.172 60.137H512v152.989H.012V60.137h192.816z"/><path style="fill:#f2f2f2" d="M512 268.717v2.458H.012v-36.864H512zM319.172 60.137v104.057H192.828V9.966h126.344z"/><path style="fill:#4d4d4d" d="M223.798 43.176h64.417v12.388h-64.417zM223.798 80.607h64.417v12.388h-64.417zM512 199.499H.012v39.009H35.19v38.405h12.388v-38.405h26.634v38.405h12.387v-38.405h26.634v38.405h12.388v-38.405h26.634v38.405h12.387v-38.405h26.634v38.405h12.388v-38.405h26.634v38.405h12.388v-38.405h26.633v38.405h12.388v-38.405h26.634v38.405h12.388v-38.405h26.634v38.405h12.387v-38.405h26.634v38.405h12.388v-38.405h26.634v38.405h12.387v-38.405h26.634v38.405h12.388v-38.405H512zM223.798 118.056h64.417v12.388h-64.417z"/><path style="fill:#666" d="M512 266.381v44.596H.012v-44.596h470.613z"/><path style="opacity:.47;fill:#333;enable-background:new" d="M44.596 310.971h422.808v33.447H44.596z"/></svg>